<?xml version="1.0" encoding="UTF-8"?>
<svg id="a" data-name="Layer 1" xmlns="http://www.w3.org/2000/svg" xmlns:xlink="http://www.w3.org/1999/xlink" viewBox="0 0 124.44 144">
  <defs>
    <clipPath id="b">
      <polygon points="124.44 108 124.44 36 62.22 0 0 36 0 108 62.22 144 124.44 108" style="fill: none; stroke-width: 0px;"/>
    </clipPath>
  </defs>
  <g>
    <polygon points="124.44 108 124.44 36 62.22 0 0 36 0 108 62.22 144 124.44 108" style="fill: #fff; stroke-width: 0px;"/>
    <g style="clip-path: url(#b);">
      <g>
        <g>
          <path d="m125.11,54.94H-33.37v15.16l19.81,3.2s13.42,2.6,19.81,2.6,13.62-6.71,19.81-6.71,13.01,7.28,19.81,7.28,13.21,2.22,19.81,2.22,10.15,11.2,19.81,11.2,15.15-13.42,19.81-13.42,19.81-6.2,19.81-6.2v-15.32h0Z" style="fill: #96bae2; stroke-width: 0px;"/>
          <path d="m125.11,54.94H-33.37v13.58s7.12,2.56,19.81,2.56,12.69,2.6,19.81,2.6,13.47-6.39,19.81-6.39,12.08-.85,19.81,1.27,14.17,2.53,19.81,2.53,9.86,4.56,19.81,4.56,8.61-6.46,19.81-6.46,19.81-2.72,19.81-2.72v-11.52h0Z" style="fill: #0072bb; stroke-width: 0px;"/>
          <path d="m125.11,54.94H-33.37v9.78l19.81.98s7.32.38,19.81.38,12.85-6.39,19.81-6.39,9.03,6.96,19.81,6.96,9.23-3.48,19.81-3.48,2.61,4.87,19.81,4.87,6.14.51,19.81.51,19.81-3.67,19.81-3.67c0,0,0-9.94,0-9.94Z" style="fill: #6099d1; stroke-width: 0px;"/>
          <path d="m125.11,54.94H-33.37v5.98s14.46-2.3,19.81.35c5.35,2.65,9.49,4.49,19.81,4.49s13.76-7.66,19.81-7.66,12.33,6.62,19.81,4.43c7.48-2.18,9.47,1.42,19.81.32,10.34-1.11,11.32,2.66,19.81,2.66s14.74.05,19.81-2.34,19.81-2.72,19.81-2.72c0,0,0-5.51,0-5.51Z" style="fill: #96bae2; stroke-width: 0px;"/>
        </g>
        <g>
          <path d="m125.12,54.94H-33.36v-15.16s15.61-1.11,19.81-3.2c4.2-2.08,8.34-2.6,19.81-2.6s14.21,6.71,19.81,6.71,13.54-4.17,19.81-7.28c6.27-3.11,8.66.2,19.81-2.22,11.15-2.42,14.81-11.2,19.81-11.2s18.35,10.99,19.81,13.42c1.46,2.43,19.81,6.2,19.81,6.2v15.32h0Z" style="fill: #96bae2; stroke-width: 0px;"/>
          <path d="m125.12,54.94H-33.36v-13.58s13.21-3.73,19.81-2.56c6.6,1.16,13.27-5.84,19.81-2.6s13.92,5.95,19.81,6.39,14.41.46,19.81-1.27,14.18-.24,19.81-2.53,13.21-4.87,19.81-4.56,13.42,6.18,19.81,6.46c6.39.27,19.81,2.72,19.81,2.72v11.52h0Z" style="fill: #6099d1; stroke-width: 0px;"/>
          <path d="m125.12,54.94H-33.36v-9.78s10.59-3.3,19.81-.98c9.22,2.32,8.26-1.5,19.81-.38s11.1,6.39,19.81,6.39,9.18-6.08,19.81-6.96c10.63-.88,10.25,3.6,19.81,3.48s13.36-2.35,19.81-4.87,14.26-1.53,19.81-.51,19.81,3.67,19.81,3.67v9.94h0Z" style="fill: #0072bb; stroke-width: 0px;"/>
          <path d="m125.12,54.94H-33.36v-5.98s7.85-.35,19.81-.35,14.36-4.11,19.81-4.49c5.45-.38,12.42,7.28,19.81,7.66,7.39.38,10.62-6.81,19.81-4.43s7.93-.32,19.81-.32,11.12-1.76,19.81-2.66c8.69-.9,11.2-2.39,19.81,2.34,8.61,4.74,19.81,2.72,19.81,2.72v5.51h0Z" style="fill: #96bae2; stroke-width: 0px;"/>
          <path d="m105.31,49.24c-18.74-5.06-6.61,1.58-19.81,1.58s-6.77,4.11-19.81,2.5-13.39-5.37-19.81-3.13-4.62,3.48-19.81,3.48-12.85-1.9-19.81-5.06c-6.96-3.16-6.25-.24-19.81,2.53-13.56,2.78-19.81,2.25-19.81,2.25v1.55h0v1.55s13.2-2.35,19.81,2.25c6.61,4.6,11.53,6.98,19.81,2.53,8.28-4.45,11.73-5.06,19.81-5.06s8.01,8.23,19.81,3.48,11.74.04,19.81-3.13c8.07-3.18,8.56,2.5,19.81,2.5s15.29,7.63,19.81,1.58,19.81-3.99,19.81-3.99v-1.71h0v-1.71s-1.07,1.07-19.81-3.99Z" style="fill: #005084; stroke-width: 0px;"/>
        </g>
      </g>
    </g>
  </g>
  <g style="isolation: isolate;">
    <g style="isolation: isolate;">
      <path d="m18.32,108.25v-1.2c-.65.74-1.76,1.41-3.03,1.41-1.78,0-2.71-.86-2.71-2.71v-6.01h1.32v5.6c0,1.5.76,1.94,1.9,1.94,1.04,0,2.03-.6,2.52-1.29v-6.26h1.32v8.51h-1.32Z" style="fill: #1a1a1a; stroke-width: 0px;"/>
      <path d="m28.03,108.25v-5.57c0-1.5-.76-1.97-1.9-1.97-1.04,0-2.03.63-2.52,1.32v6.22h-1.32v-8.51h1.32v1.23c.6-.71,1.76-1.45,3.03-1.45,1.78,0,2.71.9,2.71,2.75v5.97h-1.32Z" style="fill: #1a1a1a; stroke-width: 0px;"/>
      <path d="m37.76,108.25v-5.6c0-1.5-.78-1.94-1.92-1.94-1.02,0-2.01.63-2.52,1.32v6.22h-1.32v-11.75h1.32v4.48c.6-.71,1.76-1.45,3.05-1.45,1.78,0,2.71.86,2.71,2.71v6.01h-1.32Z" style="fill: #1a1a1a; stroke-width: 0px;"/>
      <path d="m41.24,103.99c0-2.52,1.71-4.46,4.25-4.46,1.55,0,2.47.63,3.12,1.48l-.88.81c-.56-.78-1.29-1.11-2.17-1.11-1.81,0-2.94,1.39-2.94,3.28s1.13,3.29,2.94,3.29c.88,0,1.6-.35,2.17-1.11l.88.81c-.65.85-1.57,1.48-3.12,1.48-2.54,0-4.25-1.94-4.25-4.48Z" style="fill: #1a1a1a; stroke-width: 0px;"/>
      <path d="m50.46,108.25v-8.51h1.32v1.38c.69-.9,1.67-1.55,2.84-1.55v1.36c-.16-.04-.32-.05-.53-.05-.81,0-1.92.67-2.31,1.36v6.03h-1.32Z" style="fill: #1a1a1a; stroke-width: 0px;"/>
    </g>
    <g style="isolation: isolate;">
      <path d="m56.52,106.28v-4.92h-1.41v-1.62h1.41v-2.33h1.85v2.33h1.73v1.62h-1.73v4.46c0,.58.28,1,.81,1,.35,0,.69-.14.83-.3l.44,1.39c-.33.32-.88.55-1.74.55-1.43,0-2.19-.78-2.19-2.19Z" style="fill: #0072bc; stroke-width: 0px;"/>
      <path d="m67.54,108.25v-5.36c0-1.32-.69-1.73-1.73-1.73-.93,0-1.74.56-2.19,1.15v5.94h-1.85v-11.75h1.85v4.41c.56-.67,1.67-1.37,3.01-1.37,1.83,0,2.75.95,2.75,2.7v6.03h-1.85Z" style="fill: #0072bc; stroke-width: 0px;"/>
      <path d="m71.26,103.99c0-2.47,1.8-4.46,4.32-4.46s4.19,1.96,4.19,4.63v.44h-6.57c.14,1.29,1.11,2.34,2.71,2.34.83,0,1.82-.33,2.42-.93l.85,1.22c-.85.81-2.1,1.23-3.45,1.23-2.56,0-4.46-1.78-4.46-4.48Zm4.32-2.94c-1.59,0-2.31,1.22-2.4,2.26h4.79c-.04-1-.72-2.26-2.4-2.26Z" style="fill: #0072bc; stroke-width: 0px;"/>
      <path d="m92.04,108.25v-5.55c0-.92-.41-1.53-1.39-1.53-.83,0-1.6.58-1.97,1.13v5.96h-1.85v-5.55c0-.92-.41-1.53-1.41-1.53-.81,0-1.57.58-1.96,1.15v5.94h-1.85v-8.51h1.85v1.16c.35-.53,1.48-1.37,2.77-1.37s2.04.63,2.33,1.57c.49-.78,1.62-1.57,2.89-1.57,1.57,0,2.45.85,2.45,2.57v6.15h-1.85Z" style="fill: #0072bc; stroke-width: 0px;"/>
      <path d="m95.76,103.99c0-2.47,1.8-4.46,4.32-4.46s4.19,1.96,4.19,4.63v.44h-6.57c.14,1.29,1.11,2.34,2.71,2.34.83,0,1.82-.33,2.42-.93l.85,1.22c-.85.81-2.1,1.23-3.45,1.23-2.56,0-4.46-1.78-4.46-4.48Zm4.32-2.94c-1.59,0-2.31,1.22-2.4,2.26h4.79c-.04-1-.72-2.26-2.4-2.26Z" style="fill: #0072bc; stroke-width: 0px;"/>
      <path d="m105.37,107.14l.85-1.34c.6.62,1.78,1.2,2.89,1.2s1.67-.48,1.67-1.15c0-.71-.9-.9-1.94-1.13-1.46-.32-3.21-.71-3.21-2.61,0-1.39,1.2-2.59,3.35-2.59,1.45,0,2.54.51,3.31,1.2l-.78,1.3c-.51-.58-1.46-1.02-2.52-1.02-.97,0-1.59.44-1.59,1.04s.85.79,1.85,1.02c1.48.32,3.3.74,3.3,2.75,0,1.5-1.25,2.64-3.54,2.64-1.45,0-2.77-.46-3.65-1.32Z" style="fill: #0072bc; stroke-width: 0px;"/>
    </g>
  </g>
  <path d="m62.22,2.89l59.72,34.55v69.12l-59.72,34.55L2.5,106.56V37.44L62.22,2.89m0-2.89L0,36v72l62.22,36,62.22-36V36L62.22,0h0Z" style="fill: #1a1a1a; stroke-width: 0px;"/>
</svg>