<svg id="Layer_1" data-name="Layer 1" xmlns="http://www.w3.org/2000/svg" viewBox="0 0 176.96 67.18"><defs><style>.cls-1{fill:#0071bb;}.cls-2{fill:#fff;}</style></defs><path class="cls-1" d="M25.87,28.77c.5,0,.43-.29.43-.82V25.37c0-.54,0-.71.26-.71,1.06,0,1.35-.1,1.35-1V14c0-2.62-1.85-2.18-2.36-3.14-.75-1.29,1.38-1.29.61-4.09a1.51,1.51,0,0,0-1.66-1,1.49,1.49,0,0,0-1.65,1c-.77,2.8,1.36,2.8.62,4.09-.53,1-2.37.52-2.37,3.14v9.61c0,.94.28,1,1.35,1,.3,0,.25.17.25.71V28c0,.53-.06.82.44.82h2.73"/><path class="cls-1" d="M17.46,7.93c-.95,1-2.44,3.35-1.47,5.3C18,14,17.82,7,20.29,7.07c1.22,1.13-.36,4.45-.85,5.91-.61,1.81-1.1,5.59-2.26,7.41-1,1.53-.24,6.32-.55,8-.82.82-3,.24-4,.09,0-1.89-.25-3.38-.55-6.4,0-.61-.67-9.94-.15-11.07C13,8.63,18.83,4.15,19.62,3.29S22.79,0,23.74,0c.67.46.27,1.52.12,2-.95,2.35-5,4.66-6.4,6"/><path class="cls-1" d="M31.66,7.93c.91,1,2.41,3.35,1.46,5.3-2,.76-1.85-6.28-4.33-6.16-1.18,1.13.4,4.45.89,5.91.61,1.81,1.1,5.59,2.25,7.41,1,1.53.25,6.32.52,8,.86.82,3,.24,4,.09,0-1.89.21-3.38.51-6.4.06-.61.71-9.94.19-11.07-1.07-2.34-6.89-6.82-7.68-7.68S26.33,0,25.38,0c-.7.46-.27,1.52-.12,2,.95,2.35,5,4.66,6.4,6"/><path class="cls-1" d="M9,4.76c-.52.5-1.68.83-2.48,1.89-.3-.57.49-2,1.44-2.8a12,12,0,0,1,2.47-1.62C10.73,2.93,9.63,4,9,4.76"/><path class="cls-1" d="M7.37,8.58a19.57,19.57,0,0,0-3.06,2.66,9.15,9.15,0,0,1-.15-4.46c.43-1.4,1.13-3,2.33-3.45a12.84,12.84,0,0,0-.74,3.39c-.52,2.05-.83,2.11-.7,2.38.12,0,.79-1.07,1.62-1.89,1-1,2.19-1.19,3-1.77A10.28,10.28,0,0,1,7.37,8.58"/><path class="cls-1" d="M3.06,17a11,11,0,0,1-1.4-5.5c.06-1.25.67-4.15,1.59-4.57-.28,2.62.43,2.86.15,5,0,.12-.31,2.39-.31,2.51.37-.06,0-2.08,4.22-5-.92,1.59-.49,2.08-2.14,4.19A7.76,7.76,0,0,0,3.06,17"/><path class="cls-1" d="M4.74,19.06a5.88,5.88,0,0,0-.94,2.53C1.69,20.37-.69,15.52.19,13.11c.55,1.83,1.31,2.22,1.86,3.75,1,2.29.8,3,1.41,3.51a8.53,8.53,0,0,1,.67-3.63A21.69,21.69,0,0,1,5.6,14.29a5.8,5.8,0,0,1-.86,4.77"/><path class="cls-1" d="M6.64,23.22a26.85,26.85,0,0,1-.49,4.06C2.51,26.09.62,21.93.62,19.89c1.1,2.5,2.72,2.47,4.83,6,.18-1.34-.37-.33-.43-2.87s.61-2.75.7-4.4c.67.74.92,3.67.92,4.59"/><path class="cls-1" d="M9.66,28.5c.28,1.37.4,3,.61,4.18-2.07-.76-2.6-.18-5.07-1.74-1.13-.61-3.15-3.17-3-5,2.44,2.72,2.87,2.42,4.06,3.42s2,2.2,2.78,2c.06-.73-1.8-2.32-1.56-6.9a12.66,12.66,0,0,1,2.2,4"/><path class="cls-1" d="M13.78,31.92a15.62,15.62,0,0,0,2.14,3.2,17.58,17.58,0,0,1-4.31.86c-1,0-4.7-1-5.92-3.48,2.11,1.13,2.14.85,5,1.47a40.41,40.41,0,0,0,4,1c-.12-.27-1.68-.91-2.75-2.26s-.82-3.05-1.77-4.24c.64-.19,3.14,2.75,3.66,3.42"/><path class="cls-1" d="M40,4.76c.49.5,1.68.83,2.44,1.89.34-.57-.48-2-1.43-2.8a10.39,10.39,0,0,0-2.48-1.62c-.3.7.8,1.77,1.47,2.53"/><path class="cls-1" d="M41.58,8.58a20.58,20.58,0,0,1,3,2.66,9,9,0,0,0,.16-4.46c-.4-1.4-1.14-3-2.33-3.45a11.74,11.74,0,0,1,.74,3.39c.52,2.05.82,2.11.7,2.38-.12,0-.79-1.07-1.62-1.89-1-1-2.17-1.19-3-1.77a10.62,10.62,0,0,0,2.32,3.14"/><path class="cls-1" d="M45.85,17a10.71,10.71,0,0,0,1.41-5.5C47.2,10.29,46.59,7.39,45.7,7c.25,2.62-.46,2.86-.15,5,0,.12.27,2.39.27,2.51-.33-.06,0-2.08-4.18-5,.89,1.59.46,2.08,2.11,4.19A7.08,7.08,0,0,1,45.85,17"/><path class="cls-1" d="M44.2,19.06a6,6,0,0,1,.92,2.53c2.11-1.22,4.52-6.07,3.6-8.48-.52,1.83-1.31,2.22-1.83,3.75-1,2.29-.82,3-1.4,3.51a8.56,8.56,0,0,0-.71-3.63,17.1,17.1,0,0,0-1.46-2.45,5.81,5.81,0,0,0,.88,4.77"/><path class="cls-1" d="M42.28,23.22a25.29,25.29,0,0,0,.52,4.06c3.61-1.19,5.53-5.35,5.53-7.39-1.13,2.5-2.72,2.47-4.86,6-.18-1.34.37-.33.43-2.87s-.61-2.75-.71-4.4c-.66.74-.91,3.67-.91,4.59"/><path class="cls-1" d="M39.26,28.5c-.28,1.37-.37,3-.58,4.18,2-.76,2.56-.18,5-1.74,1.14-.61,3.18-3.17,3.06-5-2.44,2.72-2.9,2.42-4.06,3.42s-2,2.2-2.81,2c-.06-.73,1.8-2.32,1.59-6.9a11.92,11.92,0,0,0-2.23,4"/><path class="cls-1" d="M35.13,31.92A13.33,13.33,0,0,1,33,35.12a17.9,17.9,0,0,0,4.34.86c1,0,4.68-1,5.89-3.48-2.1,1.13-2.13.85-4.94,1.47-2,.45-3.42,1.09-4,1,.12-.27,1.71-.91,2.75-2.26s.82-3.05,1.8-4.24c-.67-.19-3.18,2.75-3.7,3.42"/><path class="cls-1" d="M19.25,40.53l-.61-.3a13.39,13.39,0,0,1,10.54-4.37c6.66.37,6.2,1.93,9.77,1.68.4,0-.3.49-.3.49a12.33,12.33,0,0,1-7.79-.13c-4.28-1.46-7.06-2.35-11.61,2.63"/><path class="cls-1" d="M29.79,40.53l.61-.3a13.3,13.3,0,0,0-10.51-4.37c-6.69.37-6.23,1.93-9.8,1.68-.4,0,.3.49.3.49a12.32,12.32,0,0,0,7.79-.13c4.31-1.46,7.09-2.35,11.61,2.63"/><path class="cls-1" d="M77,19.93c0,6.39-3.45,9.45-10.47,9.45S56,26.32,56,19.93V5.82H63.1V18.36c0,2.35,0,5.28,3.45,5.28s3.35-2.93,3.35-5.28V5.82H77V19.93"/><polygon class="cls-1" points="81.25 5.82 88.5 5.82 95.2 18.13 95.26 18.13 95.26 5.82 101.97 5.82 101.97 28.83 95.07 28.83 88.01 16.26 87.95 16.26 87.95 28.83 81.25 28.83 81.25 5.82"/><polygon class="cls-1" points="106.32 5.82 113.41 5.82 113.41 13.81 120.05 13.81 120.05 5.82 127.14 5.82 127.14 28.83 120.05 28.83 120.05 19.71 113.41 19.71 113.41 28.83 106.32 28.83 106.32 5.82"/><path class="cls-1" d="M145.28,14.39A3.69,3.69,0,0,0,141.57,11c-3.32,0-4.38,3.22-4.38,6.31s1.06,6.32,4.38,6.32c2.39,0,3.32-1.67,3.74-3.83h7c0,4.64-3.77,9.57-10.5,9.57-7.45,0-11.67-5.26-11.67-12.06,0-7.25,4.58-12,11.67-12,6.31,0,9.8,3.35,10.41,9.12h-6.9"/><path class="cls-1" d="M162.33,11.3h3.32c2.71,0,3.51.84,3.51,2.29,0,2.06-1.81,2.28-3.13,2.28h-3.7Zm-7.09,17.53h7.09v-8h3.77c2.8,0,3,2.28,3.19,4.48a15.86,15.86,0,0,0,.58,3.54H177c-.65-1.06-.68-3.8-.78-4.93-.25-2.87-1.44-5-3.38-5.74,2.35-.87,3.45-3.38,3.45-5.77,0-4.35-3.48-6.57-7.51-6.57h-13.5v23"/><polygon class="cls-1" points="58.32 34.12 56.01 34.12 56.01 32.69 62.32 32.69 62.32 34.12 60.01 34.12 60.01 40.4 58.32 40.4 58.32 34.12"/><path class="cls-1" d="M62.85,32.69h1.54V35.6h0a2,2,0,0,1,1.63-.93c1.63,0,2,.92,2,2.3V40.4H66.55V37.25c0-.92-.26-1.37-1-1.37s-1.18.46-1.18,1.6V40.4H62.85V32.69"/><path class="cls-1" d="M70.28,38c0,1,.52,1.42,1.37,1.42a1.26,1.26,0,0,0,1.21-.73h1.35a2.51,2.51,0,0,1-2.61,1.88,2.72,2.72,0,0,1-2.85-2.93,2.79,2.79,0,0,1,2.85-2.95c1.9,0,2.82,1.6,2.71,3.31Zm2.49-1c-.14-.78-.47-1.19-1.22-1.19A1.21,1.21,0,0,0,70.28,37h2.49"/><path class="cls-1" d="M84.27,37.49c0,2.08-1.24,3.1-3.3,3.1s-3.28-1-3.28-3.1v-4.8h1.69v4.8c0,.84.22,1.67,1.59,1.67,1.21,0,1.6-.53,1.6-1.67v-4.8h1.7v4.8"/><polygon class="cls-1" points="85.4 32.69 87.08 32.69 90.3 37.87 90.32 37.87 90.32 32.69 91.91 32.69 91.91 40.4 90.22 40.4 87.01 35.24 86.99 35.24 86.99 40.4 85.4 40.4 85.4 32.69"/><path class="cls-1" d="M97.3,34h1.86c.75,0,1.16.33,1.16,1.07s-.41,1.1-1.16,1.1H97.3ZM95.6,40.4h1.7v-3H99c.86,0,1.17.36,1.29,1.16a8.39,8.39,0,0,0,.27,1.85h1.7a4.06,4.06,0,0,1-.33-1.82c0-.78-.29-1.59-1.12-1.81v0A1.89,1.89,0,0,0,102,34.82a2.12,2.12,0,0,0-2.26-2.13H95.6V40.4"/><path class="cls-1" d="M104.31,37a1.21,1.21,0,0,1,1.27-1.19c.75,0,1.08.41,1.22,1.19Zm4,1c.11-1.71-.81-3.31-2.71-3.31a2.8,2.8,0,0,0-2.85,2.95,2.72,2.72,0,0,0,2.85,2.93,2.51,2.51,0,0,0,2.62-1.88h-1.35a1.27,1.27,0,0,1-1.21.73c-.85,0-1.33-.44-1.37-1.42h4"/><path class="cls-1" d="M109.35,35.84h-.92v-1h.92v-.43a1.64,1.64,0,0,1,1.86-1.7c.27,0,.55,0,.81.05v1.14a5,5,0,0,0-.56,0c-.41,0-.58.17-.58.64v.33h1.06v1h-1.06V40.4h-1.53V35.84"/><path class="cls-1" d="M117.65,40.4h-1.46v-.78h0a2,2,0,0,1-1.71.93c-1.63,0-2-.92-2-2.3V34.82h1.53V38c0,.92.27,1.37,1,1.37s1.18-.46,1.18-1.59V34.82h1.54V40.4"/><path class="cls-1" d="M121.18,39.08c-.94,0-1.24-.87-1.24-1.67s.37-1.59,1.24-1.59,1.3.81,1.3,1.72a1.37,1.37,0,0,1-1.3,1.54m2.76-4.26h-1.46v.75h0a1.72,1.72,0,0,0-1.66-.9,2.5,2.5,0,0,0-2.4,2.76c0,1.54.72,2.81,2.39,2.81a1.88,1.88,0,0,0,1.67-.86h0v.73c0,.8-.37,1.38-1.22,1.38a1,1,0,0,1-1.15-.76h-1.52c.07,1.27,1.36,1.79,2.46,1.79,2.57,0,2.89-1.56,2.89-2.47V34.82"/><path class="cls-1" d="M126.24,37a1.22,1.22,0,0,1,1.28-1.19c.74,0,1.08.41,1.22,1.19Zm4,1c.11-1.71-.81-3.31-2.71-3.31a2.8,2.8,0,0,0-2.85,2.95,2.72,2.72,0,0,0,2.85,2.93,2.51,2.51,0,0,0,2.61-1.88h-1.35a1.25,1.25,0,0,1-1.21.73c-.85,0-1.32-.44-1.37-1.42h4"/><path class="cls-1" d="M132.25,37a1.21,1.21,0,0,1,1.27-1.19c.75,0,1.08.41,1.22,1.19Zm4,1c.11-1.71-.81-3.31-2.71-3.31a2.8,2.8,0,0,0-2.85,2.95,2.72,2.72,0,0,0,2.85,2.93,2.52,2.52,0,0,0,2.62-1.88h-1.35a1.27,1.27,0,0,1-1.21.73c-.86,0-1.33-.44-1.37-1.42h4"/><path class="cls-1" d="M143.29,34.59h0l1,2.83h-2Zm-3.77,5.81h1.72l.61-1.71h2.88l.58,1.71h1.76l-2.88-7.71h-1.74Z"/><path class="cls-1" d="M149.94,39.08c-.93,0-1.24-.87-1.24-1.67s.38-1.59,1.24-1.59,1.31.81,1.31,1.72a1.37,1.37,0,0,1-1.31,1.54m2.77-4.26h-1.46v.75h0a1.74,1.74,0,0,0-1.66-.9,2.49,2.49,0,0,0-2.4,2.76c0,1.54.71,2.81,2.38,2.81a1.89,1.89,0,0,0,1.68-.86h0v.73c0,.8-.38,1.38-1.23,1.38a1,1,0,0,1-1.14-.76h-1.53c.08,1.27,1.36,1.79,2.47,1.79,2.56,0,2.89-1.56,2.89-2.47V34.82"/><path class="cls-1" d="M155,37a1.21,1.21,0,0,1,1.27-1.19c.75,0,1.08.41,1.22,1.19Zm4,1c.1-1.71-.81-3.31-2.71-3.31a2.79,2.79,0,0,0-2.85,2.95,2.72,2.72,0,0,0,2.85,2.93,2.51,2.51,0,0,0,2.61-1.88h-1.35a1.26,1.26,0,0,1-1.21.73c-.85,0-1.33-.44-1.37-1.42h4"/><path class="cls-1" d="M159.71,34.82h1.45v.78h0a2,2,0,0,1,1.7-.93c1.63,0,2,.92,2,2.3V40.4h-1.53V37.25c0-.92-.27-1.37-1-1.37s-1.19.46-1.19,1.6V40.4h-1.53V34.82"/><path class="cls-1" d="M169.67,36.79a1.05,1.05,0,0,0-1.13-1c-1,0-1.31,1-1.31,1.82s.31,1.76,1.27,1.76a1.19,1.19,0,0,0,1.23-1.14h1.48a2.5,2.5,0,0,1-2.69,2.29,2.7,2.7,0,0,1-2.82-2.86,2.75,2.75,0,0,1,2.85-3,2.36,2.36,0,0,1,2.62,2.12h-1.5"/><path class="cls-1" d="M174.63,41.1a1.76,1.76,0,0,1-1.92,1.27,7.3,7.3,0,0,1-.94-.06V41.05a6.55,6.55,0,0,0,.89.05.71.71,0,0,0,.53-1l-2-5.24h1.64l1.26,3.82h0l1.22-3.82H177l-2.33,6.28"/><rect class="cls-2" x="59.08" y="49.28" width="14.83" height="14.83" transform="translate(153.61 49.76) rotate(135)"/></svg>