<svg id="Layer_1" data-name="Layer 1" xmlns="http://www.w3.org/2000/svg" viewBox="0 0 538.58 728.5"><defs><style>.cls-1{fill:#0071bb;}.cls-2{fill:#fff;}</style></defs><polygon class="cls-1" points="76.99 0 66.5 10.49 56.01 0 0 0 0 728.5 538.58 728.5 538.58 0 76.99 0"/><path class="cls-2" d="M77.39,544.59c.4,0,.35-.23.35-.65v-2.07c0-.43,0-.57.2-.57.85,0,1.08-.07,1.08-.83v-7.69c0-2.09-1.48-1.74-1.89-2.51-.59-1,1.11-1,.49-3.27A1.47,1.47,0,0,0,75,527c-.61,2.24,1.09,2.24.5,3.27-.42.77-1.9.42-1.9,2.51v7.69c0,.76.23.83,1.08.83.24,0,.21.14.21.57v2.07c0,.42-.06.65.35.65h2.18"/><path class="cls-2" d="M70.66,527.92c-.76.8-2,2.68-1.17,4.24,1.58.61,1.46-5,3.44-4.93,1,.91-.29,3.56-.69,4.73-.48,1.45-.87,4.47-1.8,5.93-.78,1.22-.2,5.05-.44,6.37-.66.65-2.44.19-3.19.07,0-1.51-.2-2.71-.44-5.12,0-.49-.54-8-.13-8.86.86-1.87,5.52-5.46,6.15-6.14s2.54-2.64,3.29-2.64c.54.37.22,1.22.1,1.57-.76,1.87-4,3.73-5.12,4.78"/><path class="cls-2" d="M82,527.92c.73.8,1.93,2.68,1.17,4.24-1.61.61-1.48-5-3.46-4.93-1,.91.32,3.56.71,4.73.48,1.45.88,4.47,1.8,5.93.76,1.22.19,5.05.41,6.37.69.65,2.44.19,3.22.07,0-1.51.18-2.71.42-5.12,0-.49.56-8,.14-8.86-.85-1.87-5.51-5.46-6.14-6.14s-2.54-2.64-3.29-2.64c-.56.37-.22,1.22-.1,1.57.76,1.87,4,3.73,5.12,4.78"/><path class="cls-2" d="M63.88,525.39c-.41.39-1.34.66-2,1.51-.24-.46.39-1.59,1.15-2.25a9.38,9.38,0,0,1,2-1.29c.24.56-.63,1.42-1.15,2"/><path class="cls-2" d="M62.59,528.44a15,15,0,0,0-2.45,2.13A7.33,7.33,0,0,1,60,527c.35-1.12.91-2.37,1.86-2.76a10.16,10.16,0,0,0-.59,2.71c-.41,1.64-.66,1.69-.56,1.91.1,0,.63-.86,1.3-1.52a12.52,12.52,0,0,1,2.39-1.41,8.53,8.53,0,0,1-1.83,2.51"/><path class="cls-2" d="M59.14,535.21a8.83,8.83,0,0,1-1.12-4.4c0-1,.54-3.32,1.27-3.66-.22,2.1.34,2.29.12,4,0,.09-.24,1.9-.24,2,.29,0,0-1.66,3.37-4-.73,1.27-.39,1.66-1.71,3.35a6.16,6.16,0,0,0-1.69,2.66"/><path class="cls-2" d="M60.49,536.82a4.73,4.73,0,0,0-.76,2c-1.69-1-3.59-4.86-2.89-6.79.45,1.46,1.06,1.78,1.5,3,.75,1.84.63,2.4,1.12,2.81A6.75,6.75,0,0,1,60,535a17.65,17.65,0,0,1,1.17-2,4.63,4.63,0,0,1-.68,3.81"/><path class="cls-2" d="M62,540.15a21.44,21.44,0,0,1-.39,3.25,7.07,7.07,0,0,1-4.42-5.92c.88,2,2.17,2,3.86,4.82.15-1.08-.29-.27-.34-2.3s.49-2.2.56-3.52c.54.59.73,2.93.73,3.67"/><path class="cls-2" d="M64.42,544.37c.22,1.1.32,2.4.49,3.35-1.66-.61-2.08-.15-4.06-1.39-.9-.49-2.51-2.54-2.41-4a13.84,13.84,0,0,0,3.25,2.74c.87.71,1.58,1.76,2.22,1.61.05-.59-1.44-1.86-1.25-5.52a10.07,10.07,0,0,1,1.76,3.22"/><path class="cls-2" d="M67.72,547.11a12.26,12.26,0,0,0,1.71,2.56,14.24,14.24,0,0,1-3.45.69c-.82,0-3.76-.78-4.73-2.79,1.68.91,1.71.69,4,1.18,1.62.36,2.76.88,3.2.83a14.38,14.38,0,0,1-2.19-1.81c-.86-1.15-.66-2.44-1.42-3.4.51-.14,2.51,2.2,2.93,2.74"/><path class="cls-2" d="M88.66,525.39c.39.39,1.34.66,2,1.51.27-.46-.38-1.59-1.14-2.25a8.3,8.3,0,0,0-2-1.29c-.24.56.64,1.42,1.18,2"/><path class="cls-2" d="M90,528.44a15.49,15.49,0,0,1,2.42,2.13A7.23,7.23,0,0,0,92.5,527a4.13,4.13,0,0,0-1.86-2.76,9.78,9.78,0,0,1,.59,2.71c.41,1.64.66,1.69.56,1.91-.1,0-.64-.86-1.3-1.52a11.16,11.16,0,0,0-2.39-1.41A8.77,8.77,0,0,0,90,528.44"/><path class="cls-2" d="M93.38,535.21a8.73,8.73,0,0,0,1.12-4.4c0-1-.54-3.32-1.25-3.66.2,2.1-.36,2.29-.12,4,0,.09.22,1.9.22,2-.27,0,0-1.66-3.35-4,.71,1.27.37,1.66,1.69,3.35a5.87,5.87,0,0,1,1.69,2.66"/><path class="cls-2" d="M92.05,536.82a4.9,4.9,0,0,1,.74,2c1.69-1,3.61-4.86,2.88-6.79-.41,1.46-1,1.78-1.46,3-.78,1.84-.66,2.4-1.13,2.81a6.76,6.76,0,0,0-.56-2.9,15,15,0,0,0-1.17-2,4.64,4.64,0,0,0,.7,3.81"/><path class="cls-2" d="M90.52,540.15a21.18,21.18,0,0,0,.41,3.25,7.12,7.12,0,0,0,4.43-5.92c-.91,2-2.18,2-3.89,4.82-.15-1.08.29-.27.34-2.3s-.49-2.2-.56-3.52c-.54.59-.73,2.93-.73,3.67"/><path class="cls-2" d="M88.1,544.37c-.22,1.1-.3,2.4-.47,3.35,1.64-.61,2.06-.15,4-1.39.91-.49,2.55-2.54,2.45-4a14.73,14.73,0,0,1-3.25,2.74c-.88.71-1.61,1.76-2.25,1.61,0-.59,1.44-1.86,1.27-5.52a9.69,9.69,0,0,0-1.78,3.22"/><path class="cls-2" d="M84.8,547.11a10.75,10.75,0,0,1-1.71,2.56,14.45,14.45,0,0,0,3.47.69c.8,0,3.74-.78,4.71-2.79-1.68.91-1.71.69-4,1.18a31.84,31.84,0,0,1-3.2.83,13.77,13.77,0,0,0,2.2-1.81c.85-1.15.65-2.44,1.43-3.4-.53-.14-2.53,2.2-3,2.74"/><path class="cls-2" d="M72.09,554l-.49-.24a10.75,10.75,0,0,1,8.43-3.5c5.33.3,5,1.54,7.82,1.35.32,0-.24.39-.24.39a9.89,9.89,0,0,1-6.23-.1C78,550.73,75.73,550,72.09,554"/><path class="cls-2" d="M80.52,554l.49-.24a10.65,10.65,0,0,0-8.4-3.5c-5.35.3-5,1.54-7.85,1.35-.31,0,.25.39.25.39a9.88,9.88,0,0,0,6.23-.1c3.44-1.17,5.67-1.88,9.28,2.1"/><path class="cls-2" d="M118.28,537.52c0,5.11-2.75,7.56-8.37,7.56s-8.41-2.45-8.41-7.56V526.23h5.67v10c0,1.88,0,4.23,2.76,4.23s2.68-2.35,2.68-4.23v-10h5.67v11.29"/><polygon class="cls-2" points="121.69 526.23 127.49 526.23 132.85 536.08 132.9 536.08 132.9 526.23 138.26 526.23 138.26 544.64 132.75 544.64 127.1 534.58 127.05 534.58 127.05 544.64 121.69 544.64 121.69 526.23"/><polygon class="cls-2" points="141.75 526.23 147.42 526.23 147.42 532.62 152.73 532.62 152.73 526.23 158.4 526.23 158.4 544.64 152.73 544.64 152.73 537.34 147.42 537.34 147.42 544.64 141.75 544.64 141.75 526.23"/><path class="cls-2" d="M172.92,533.09a3,3,0,0,0-3-2.71c-2.66,0-3.51,2.58-3.51,5s.85,5.06,3.51,5.06c1.91,0,2.66-1.34,3-3.07h5.57c0,3.71-3,7.66-8.4,7.66-6,0-9.34-4.21-9.34-9.65,0-5.8,3.66-9.64,9.34-9.64,5,0,7.83,2.68,8.32,7.3h-5.51"/><path class="cls-2" d="M186.55,530.61h2.66c2.17,0,2.81.67,2.81,1.83,0,1.65-1.45,1.83-2.5,1.83h-3Zm-5.67,14h5.67v-6.42h3c2.24,0,2.4,1.83,2.55,3.58a13.06,13.06,0,0,0,.47,2.84h5.67c-.52-.85-.54-3-.62-3.95-.21-2.29-1.16-4-2.71-4.59a4.72,4.72,0,0,0,2.76-4.61c0-3.48-2.78-5.26-6-5.26h-10.8v18.41"/><polygon class="cls-2" points="103.35 548.87 101.5 548.87 101.5 547.73 106.55 547.73 106.55 548.87 104.7 548.87 104.7 553.9 103.35 553.9 103.35 548.87"/><path class="cls-2" d="M107,547.73h1.23v2.32h0a1.56,1.56,0,0,1,1.3-.74c1.31,0,1.63.73,1.63,1.84v2.75h-1.22v-2.53c0-.73-.22-1.09-.79-1.09s-1,.37-1,1.28v2.34H107v-6.17"/><path class="cls-2" d="M112.92,552c0,.78.41,1.13,1.09,1.13a1,1,0,0,0,1-.58h1.08A2,2,0,0,1,114,554a2.18,2.18,0,0,1-2.28-2.35,2.24,2.24,0,1,1,4.45.29Zm2-.78c-.11-.62-.38-.95-1-.95a1,1,0,0,0-1,.95h2"/><path class="cls-2" d="M124.1,551.56c0,1.67-1,2.48-2.63,2.48s-2.63-.8-2.63-2.48v-3.83h1.36v3.83c0,.68.17,1.34,1.27,1.34s1.28-.42,1.28-1.34v-3.83h1.35v3.83"/><polygon class="cls-2" points="125.01 547.73 126.36 547.73 128.93 551.87 128.95 551.87 128.95 547.73 130.22 547.73 130.22 553.9 128.86 553.9 126.3 549.77 126.28 549.77 126.28 553.9 125.01 553.9 125.01 547.73"/><path class="cls-2" d="M134.53,548.78H136c.6,0,.93.26.93.86s-.33.88-.93.88h-1.49Zm-1.35,5.12h1.35v-2.41h1.36c.68,0,.93.28,1,.93a6.6,6.6,0,0,0,.21,1.48h1.36a3.35,3.35,0,0,1-.26-1.46c0-.63-.23-1.27-.9-1.45h0a1.53,1.53,0,0,0,1-1.55,1.7,1.7,0,0,0-1.81-1.7h-3.32v6.17"/><path class="cls-2" d="M140.14,551.18a1,1,0,0,1,1-.95c.59,0,.86.33,1,.95Zm3.22.78a2.24,2.24,0,1,0-4.45-.29,2.18,2.18,0,0,0,2.28,2.35,2,2,0,0,0,2.09-1.51H142.2a1,1,0,0,1-1,.58c-.69,0-1.07-.35-1.1-1.13h3.22"/><path class="cls-2" d="M144.17,550.25h-.74v-.82h.74v-.34a1.31,1.31,0,0,1,1.49-1.36c.22,0,.44,0,.65,0v.92a3.29,3.29,0,0,0-.45,0c-.33,0-.47.14-.47.51v.27h.85v.82h-.85v3.65h-1.22v-3.65"/><path class="cls-2" d="M150.81,553.9h-1.17v-.63h0a1.61,1.61,0,0,1-1.37.75c-1.3,0-1.63-.74-1.63-1.84v-2.75h1.23V552c0,.74.21,1.1.78,1.1s1-.37,1-1.28v-2.34h1.23v4.47"/><path class="cls-2" d="M153.63,552.84c-.75,0-1-.7-1-1.34s.3-1.27,1-1.27,1.05.65,1.05,1.38a1.09,1.09,0,0,1-1.05,1.23m2.22-3.41h-1.17v.6h0a1.38,1.38,0,0,0-1.33-.72,2,2,0,0,0-1.91,2.21c0,1.23.57,2.25,1.9,2.25a1.51,1.51,0,0,0,1.34-.69h0v.58c0,.64-.3,1.11-1,1.11a.83.83,0,0,1-.92-.61h-1.22c.06,1,1.09,1.43,2,1.43,2.06,0,2.32-1.24,2.32-2v-4.18"/><path class="cls-2" d="M157.69,551.18a1,1,0,0,1,1-.95c.59,0,.86.33,1,.95Zm3.22.78a2.24,2.24,0,1,0-4.45-.29,2.18,2.18,0,0,0,2.28,2.35,2,2,0,0,0,2.09-1.51h-1.08a1,1,0,0,1-1,.58c-.68,0-1.06-.35-1.09-1.13h3.22"/><path class="cls-2" d="M162.49,551.18a1,1,0,0,1,1-.95c.59,0,.86.33,1,.95Zm3.22.78a2.24,2.24,0,1,0-4.45-.29,2.19,2.19,0,0,0,2.28,2.35,2,2,0,0,0,2.09-1.51h-1.08a1,1,0,0,1-1,.58c-.69,0-1.07-.35-1.1-1.13h3.22"/><path class="cls-2" d="M171.33,549.25h0l.78,2.26h-1.6Zm-3,4.65h1.37l.49-1.38h2.3l.47,1.38h1.41L172,547.73h-1.39Z"/><path class="cls-2" d="M176.65,552.84c-.75,0-1-.7-1-1.34s.31-1.27,1-1.27,1,.65,1,1.38a1.09,1.09,0,0,1-1,1.23m2.21-3.41h-1.17v.6h0a1.4,1.4,0,0,0-1.33-.72,2,2,0,0,0-1.92,2.21c0,1.23.57,2.25,1.91,2.25a1.53,1.53,0,0,0,1.34-.69h0v.58c0,.64-.3,1.11-1,1.11a.84.84,0,0,1-.92-.61h-1.22c.06,1,1.09,1.43,2,1.43,2.06,0,2.32-1.24,2.32-2v-4.18"/><path class="cls-2" d="M180.7,551.18a1,1,0,0,1,1-.95c.59,0,.86.33,1,.95Zm3.22.78a2.24,2.24,0,1,0-4.45-.29,2.18,2.18,0,0,0,2.28,2.35,2,2,0,0,0,2.09-1.51h-1.08a1,1,0,0,1-1,.58c-.69,0-1.07-.35-1.1-1.13h3.22"/><path class="cls-2" d="M184.46,549.43h1.16v.62h0a1.59,1.59,0,0,1,1.36-.74c1.31,0,1.64.73,1.64,1.84v2.75h-1.23v-2.53c0-.73-.22-1.09-.79-1.09s-.95.37-.95,1.28v2.34h-1.22v-4.47"/><path class="cls-2" d="M192.43,551a.84.84,0,0,0-.91-.77c-.78,0-1,.8-1,1.45s.25,1.41,1,1.41a.94.94,0,0,0,1-.9h1.19a2,2,0,0,1-2.15,1.83,2.17,2.17,0,0,1-2.26-2.29,2.21,2.21,0,0,1,2.28-2.42,1.9,1.9,0,0,1,2.1,1.69h-1.2"/><path class="cls-2" d="M196.39,554.46a1.4,1.4,0,0,1-1.53,1c-.25,0-.5,0-.76,0v-1a5.81,5.81,0,0,0,.72.05.58.58,0,0,0,.42-.84l-1.57-4.19H195l1,3.06h0l1-3.06h1.27l-1.87,5"/></svg>