<?xml version="1.0" encoding="UTF-8"?>
<svg id="Layer_1" data-name="Layer 1" xmlns="http://www.w3.org/2000/svg" xmlns:xlink="http://www.w3.org/1999/xlink" viewBox="0 0 124.44 144">
  <defs>
    <style>
      .cls-1 {
        fill: #6099d1;
      }

      .cls-1, .cls-2, .cls-3, .cls-4, .cls-5, .cls-6 {
        stroke-width: 0px;
      }

      .cls-2 {
        fill: #0072bb;
      }

      .cls-7, .cls-4 {
        fill: #fff;
      }

      .cls-8 {
        font-size: 17.63px;
      }

      .cls-3, .cls-9 {
        fill: #1a1a1a;
      }

      .cls-10 {
        fill: #0072bc;
        font-family: ProximaNova-Semibold, 'Proxima Nova';
        font-weight: 600;
      }

      .cls-5 {
        fill: #005084;
      }

      .cls-11 {
        clip-path: url(#clippath);
      }

      .cls-6 {
        fill: #96bae2;
      }

      .cls-9 {
        font-family: ProximaNova-Regular, 'Proxima Nova';
      }
    </style>
    <clipPath id="clippath">
      <polygon class="cls-4" points="124.44 108 124.44 36 62.22 0 0 36 0 108 62.22 144 124.44 108"/>
    </clipPath>
  </defs>
  <g>
    <polygon class="cls-7" points="124.44 108 124.44 36 62.22 0 0 36 0 108 62.22 144 124.44 108"/>
    <g class="cls-11">
      <g>
        <g>
          <path class="cls-6" d="m125.11,54.94H-33.37v15.16l19.81,3.2s13.42,2.6,19.81,2.6,13.62-6.71,19.81-6.71,13.01,7.28,19.81,7.28,13.21,2.22,19.81,2.22,10.15,11.2,19.81,11.2,15.15-13.42,19.81-13.42,19.81-6.2,19.81-6.2v-15.32Z"/>
          <path class="cls-2" d="m125.11,54.94H-33.37v13.58s7.12,2.56,19.81,2.56,12.69,2.6,19.81,2.6,13.47-6.39,19.81-6.39,12.08-.85,19.81,1.27,14.17,2.53,19.81,2.53,9.86,4.56,19.81,4.56,8.61-6.46,19.81-6.46,19.81-2.72,19.81-2.72v-11.52Z"/>
          <path class="cls-1" d="m125.11,54.94H-33.37v9.78l19.81.98s7.32.38,19.81.38,12.85-6.39,19.81-6.39,9.03,6.96,19.81,6.96,9.23-3.48,19.81-3.48,2.61,4.87,19.81,4.87,6.14.51,19.81.51,19.81-3.67,19.81-3.67v-9.94Z"/>
          <path class="cls-6" d="m125.11,54.94H-33.37v5.98s14.46-2.3,19.81.35c5.35,2.65,9.49,4.49,19.81,4.49s13.76-7.66,19.81-7.66,12.33,6.62,19.81,4.43c7.48-2.18,9.47,1.42,19.81.32,10.34-1.11,11.32,2.66,19.81,2.66s14.74.05,19.81-2.34,19.81-2.72,19.81-2.72v-5.51Z"/>
        </g>
        <g>
          <path class="cls-6" d="m125.12,54.94H-33.36v-15.16s15.61-1.11,19.81-3.2c4.2-2.08,8.34-2.6,19.81-2.6s14.21,6.71,19.81,6.71,13.54-4.17,19.81-7.28c6.27-3.11,8.66.2,19.81-2.22s14.81-11.2,19.81-11.2,18.35,10.99,19.81,13.42,19.81,6.2,19.81,6.2v15.32Z"/>
          <path class="cls-1" d="m125.12,54.94H-33.36v-13.58s13.21-3.73,19.81-2.56c6.6,1.16,13.27-5.84,19.81-2.6s13.92,5.95,19.81,6.39,14.41.46,19.81-1.27c5.4-1.73,14.18-.24,19.81-2.53s13.21-4.87,19.81-4.56,13.42,6.18,19.81,6.46c6.39.27,19.81,2.72,19.81,2.72v11.52Z"/>
          <path class="cls-2" d="m125.12,54.94H-33.36v-9.78s10.59-3.3,19.81-.98c9.22,2.32,8.26-1.5,19.81-.38,11.55,1.12,11.1,6.39,19.81,6.39s9.18-6.08,19.81-6.96c10.63-.88,10.25,3.6,19.81,3.48,9.56-.12,13.36-2.35,19.81-4.87s14.26-1.53,19.81-.51,19.81,3.67,19.81,3.67v9.94Z"/>
          <path class="cls-6" d="m125.12,54.94H-33.36v-5.98s7.85-.35,19.81-.35,14.36-4.11,19.81-4.49c5.45-.38,12.42,7.28,19.81,7.66s10.62-6.81,19.81-4.43c9.19,2.38,7.93-.32,19.81-.32s11.12-1.76,19.81-2.66c8.69-.9,11.2-2.39,19.81,2.34,8.61,4.74,19.81,2.72,19.81,2.72v5.51Z"/>
          <path class="cls-5" d="m105.31,49.24c-18.74-5.06-6.61,1.58-19.81,1.58s-6.77,4.11-19.81,2.5c-13.04-1.61-13.39-5.37-19.81-3.13s-4.62,3.48-19.81,3.48-12.85-1.9-19.81-5.06c-6.96-3.16-6.25-.24-19.81,2.53-13.56,2.78-19.81,2.25-19.81,2.25v1.55h0v1.55s13.2-2.35,19.81,2.25c6.61,4.6,11.53,6.98,19.81,2.53,8.28-4.45,11.73-5.06,19.81-5.06s8.01,8.23,19.81,3.48c11.8-4.75,11.74.04,19.81-3.13,8.07-3.18,8.56,2.5,19.81,2.5s15.29,7.63,19.81,1.58c4.52-6.05,19.81-3.99,19.81-3.99v-1.71h0v-1.71s-1.07,1.07-19.81-3.99Z"/>
        </g>
      </g>
    </g>
  </g>
  <text class="cls-8" transform="translate(11.25 108.25)"><tspan class="cls-9" x="0" y="0">unhcr</tspan><tspan class="cls-10" x="43.7" y="0">themes</tspan></text>
  <path class="cls-3" d="m62.22,2.89l59.72,34.55v69.12l-59.72,34.55L2.5,106.56V37.44L62.22,2.89m0-2.89L0,36v72l62.22,36,62.22-36V36L62.22,0h0Z"/>
</svg>